<?xml version="1.0" standalone="no"?><svg xmlns="http://www.w3.org/2000/svg" viewBox="0 0 1440 320"><path fill="#402176" fill-opacity="1" d="M0,224L10.4,186.7C20.9,149,42,75,63,80C83.5,85,104,171,125,186.7C146.1,203,167,149,188,112C208.7,75,230,53,250,53.3C271.3,53,292,75,313,85.3C333.9,96,355,96,376,101.3C396.5,107,417,117,438,138.7C459.1,160,480,192,501,208C521.7,224,543,224,563,192C584.3,160,605,96,626,80C647,64,668,96,689,112C709.6,128,730,128,751,112C772.2,96,793,64,814,53.3C834.8,43,856,53,877,64C897.4,75,918,85,939,122.7C960,160,981,224,1002,224C1022.6,224,1043,160,1064,138.7C1085.2,117,1106,139,1127,122.7C1147.8,107,1169,53,1190,42.7C1210.4,32,1231,64,1252,96C1273,128,1294,160,1315,160C1335.7,160,1357,128,1377,128C1398.3,128,1419,160,1430,176L1440,192L1440,0L1429.6,0C1419.1,0,1398,0,1377,0C1356.5,0,1336,0,1315,0C1293.9,0,1273,0,1252,0C1231.3,0,1210,0,1190,0C1168.7,0,1148,0,1127,0C1106.1,0,1085,0,1064,0C1043.5,0,1023,0,1002,0C980.9,0,960,0,939,0C918.3,0,897,0,877,0C855.7,0,835,0,814,0C793,0,772,0,751,0C730.4,0,710,0,689,0C667.8,0,647,0,626,0C605.2,0,584,0,563,0C542.6,0,522,0,501,0C480,0,459,0,438,0C417.4,0,397,0,376,0C354.8,0,334,0,313,0C292.2,0,271,0,250,0C229.6,0,209,0,188,0C167,0,146,0,125,0C104.3,0,83,0,63,0C41.7,0,21,0,10,0L0,0Z"></path></svg>